<svg width="25" height="25" viewBox="0 0 25 25" fill="none" xmlns="http://www.w3.org/2000/svg">
<mask id="mask0_857_118" style="mask-type:alpha" maskUnits="userSpaceOnUse" x="0" y="0" width="25" height="25">
<rect x="0.0898438" y="0.114258" width="24" height="24" fill="#D9D9D9"/>
</mask>
<g mask="url(#mask0_857_118)">
<path d="M12.0898 19.3834C11.6774 19.3834 11.3242 19.2366 11.0305 18.9428C10.7367 18.6491 10.5899 18.296 10.5899 17.8835C10.5899 17.471 10.7367 17.1179 11.0305 16.8241C11.3242 16.5304 11.6774 16.3835 12.0898 16.3835C12.5023 16.3835 12.8554 16.5304 13.1492 16.8241C13.4429 17.1179 13.5898 17.471 13.5898 17.8835C13.5898 18.296 13.4429 18.6491 13.1492 18.9428C12.8554 19.2366 12.5023 19.3834 12.0898 19.3834ZM12.0898 13.6142C11.6774 13.6142 11.3242 13.4674 11.0305 13.1736C10.7367 12.8799 10.5899 12.5268 10.5899 12.1143C10.5899 11.7018 10.7367 11.3487 11.0305 11.0549C11.3242 10.7612 11.6774 10.6143 12.0898 10.6143C12.5023 10.6143 12.8554 10.7612 13.1492 11.0549C13.4429 11.3487 13.5898 11.7018 13.5898 12.1143C13.5898 12.5268 13.4429 12.8799 13.1492 13.1736C12.8554 13.4674 12.5023 13.6142 12.0898 13.6142ZM12.0898 7.84502C11.6774 7.84502 11.3242 7.69814 11.0305 7.40439C10.7367 7.11066 10.5899 6.75754 10.5899 6.34504C10.5899 5.93256 10.7367 5.57944 11.0305 5.28569C11.3242 4.99196 11.6774 4.84509 12.0898 4.84509C12.5023 4.84509 12.8554 4.99196 13.1492 5.28569C13.4429 5.57944 13.5898 5.93256 13.5898 6.34504C13.5898 6.75754 13.4429 7.11066 13.1492 7.40439C12.8554 7.69814 12.5023 7.84502 12.0898 7.84502Z" fill="#1E1F21"/>
</g>
<mask id="mask1_857_118" style="mask-type:alpha" maskUnits="userSpaceOnUse" x="0" y="0" width="24" height="25">
<rect y="0.0380859" width="24" height="24" fill="#D9D9D9"/>
</mask>
<g mask="url(#mask1_857_118)">
<path d="M12 19.3073C11.5875 19.3073 11.2344 19.1604 10.9407 18.8667C10.6469 18.5729 10.5 18.2198 10.5 17.8073C10.5 17.3948 10.6469 17.0417 10.9407 16.748C11.2344 16.4542 11.5875 16.3073 12 16.3073C12.4125 16.3073 12.7656 16.4542 13.0594 16.748C13.3531 17.0417 13.5 17.3948 13.5 17.8073C13.5 18.2198 13.3531 18.5729 13.0594 18.8667C12.7656 19.1604 12.4125 19.3073 12 19.3073ZM12 13.5381C11.5875 13.5381 11.2344 13.3912 10.9407 13.0974C10.6469 12.8037 10.5 12.4506 10.5 12.0381C10.5 11.6256 10.6469 11.2725 10.9407 10.9787C11.2344 10.685 11.5875 10.5381 12 10.5381C12.4125 10.5381 12.7656 10.685 13.0594 10.9787C13.3531 11.2725 13.5 11.6256 13.5 12.0381C13.5 12.4506 13.3531 12.8037 13.0594 13.0974C12.7656 13.3912 12.4125 13.5381 12 13.5381ZM12 7.76885C11.5875 7.76885 11.2344 7.62197 10.9407 7.32822C10.6469 7.03449 10.5 6.68137 10.5 6.26887C10.5 5.85639 10.6469 5.50327 10.9407 5.20952C11.2344 4.91579 11.5875 4.76892 12 4.76892C12.4125 4.76892 12.7656 4.91579 13.0594 5.20952C13.3531 5.50327 13.5 5.85639 13.5 6.26887C13.5 6.68137 13.3531 7.03449 13.0594 7.32822C12.7656 7.62197 12.4125 7.76885 12 7.76885Z" fill="white"/>
</g>
</svg>
